<mxfile host="app.diagrams.net" agent="Mozilla/5.0 (Windows NT 10.0; Win64; x64) AppleWebKit/537.36 (KHTML, like Gecko) Chrome/130.0.0.0 Safari/537.36" version="24.8.3">
  <diagram name="Page-1" id="CKsb5PUo-rdUgzwquD4P">
    <mxGraphModel dx="1434" dy="772" grid="1" gridSize="10" guides="1" tooltips="1" connect="1" arrows="1" fold="1" page="1" pageScale="1" pageWidth="850" pageHeight="1100" math="0" shadow="0">
      <root>
        <mxCell id="0" />
        <mxCell id="1" parent="0" />
        <mxCell id="Oc3Pf9WNAxj913DMyhu0-2" value="GAME STAR" style="ellipse;whiteSpace=wrap;html=1;aspect=fixed;fillColor=#f5f5f5;gradientColor=#b3b3b3;strokeColor=#666666;" vertex="1" parent="1">
          <mxGeometry x="100" y="120" width="120" height="120" as="geometry" />
        </mxCell>
        <mxCell id="Oc3Pf9WNAxj913DMyhu0-5" value="" style="shape=flexArrow;endArrow=classic;html=1;rounded=0;strokeColor=#666666;fillColor=#f5f5f5;gradientColor=#b3b3b3;" edge="1" parent="1">
          <mxGeometry width="50" height="50" relative="1" as="geometry">
            <mxPoint x="160" y="240" as="sourcePoint" />
            <mxPoint x="290" y="290" as="targetPoint" />
            <Array as="points">
              <mxPoint x="160" y="290" />
            </Array>
          </mxGeometry>
        </mxCell>
        <mxCell id="Oc3Pf9WNAxj913DMyhu0-6" value="&lt;b style=&quot;&quot;&gt;&lt;font style=&quot;font-size: 12px;&quot;&gt;Mulai permainan&lt;/font&gt;&lt;/b&gt;" style="rounded=1;whiteSpace=wrap;html=1;fillColor=#f8cecc;gradientColor=#ea6b66;strokeColor=#b85450;align=center;" vertex="1" parent="1">
          <mxGeometry x="310" y="250" width="130" height="80" as="geometry" />
        </mxCell>
        <mxCell id="Oc3Pf9WNAxj913DMyhu0-8" value="&lt;b&gt;Tugas utama&lt;/b&gt;" style="rounded=1;whiteSpace=wrap;html=1;fillColor=#f8cecc;strokeColor=#b85450;gradientColor=#ea6b66;" vertex="1" parent="1">
          <mxGeometry x="500" y="250" width="130" height="80" as="geometry" />
        </mxCell>
        <mxCell id="Oc3Pf9WNAxj913DMyhu0-13" value="" style="endArrow=classic;html=1;rounded=0;exitX=1;exitY=0.5;exitDx=0;exitDy=0;" edge="1" parent="1" source="Oc3Pf9WNAxj913DMyhu0-6">
          <mxGeometry width="50" height="50" relative="1" as="geometry">
            <mxPoint x="400" y="420" as="sourcePoint" />
            <mxPoint x="490" y="290" as="targetPoint" />
          </mxGeometry>
        </mxCell>
        <mxCell id="Oc3Pf9WNAxj913DMyhu0-14" value="" style="endArrow=classic;html=1;rounded=0;exitX=0.5;exitY=1;exitDx=0;exitDy=0;" edge="1" parent="1" source="Oc3Pf9WNAxj913DMyhu0-8">
          <mxGeometry width="50" height="50" relative="1" as="geometry">
            <mxPoint x="400" y="420" as="sourcePoint" />
            <mxPoint x="530" y="460" as="targetPoint" />
            <Array as="points">
              <mxPoint x="565" y="460" />
            </Array>
          </mxGeometry>
        </mxCell>
        <mxCell id="Oc3Pf9WNAxj913DMyhu0-16" value="&lt;b&gt;Menghindari bom&lt;/b&gt;" style="rounded=1;whiteSpace=wrap;html=1;fillColor=#f8cecc;gradientColor=#ea6b66;strokeColor=#b85450;" vertex="1" parent="1">
          <mxGeometry x="390" y="420" width="130" height="80" as="geometry" />
        </mxCell>
        <mxCell id="Oc3Pf9WNAxj913DMyhu0-17" value="&lt;b&gt;Power-up&lt;/b&gt;" style="rounded=1;whiteSpace=wrap;html=1;fillColor=#f8cecc;gradientColor=#ea6b66;strokeColor=#b85450;" vertex="1" parent="1">
          <mxGeometry x="180" y="420" width="130" height="80" as="geometry" />
        </mxCell>
        <mxCell id="Oc3Pf9WNAxj913DMyhu0-18" value="" style="endArrow=classic;html=1;rounded=0;exitX=-0.023;exitY=0.425;exitDx=0;exitDy=0;exitPerimeter=0;" edge="1" parent="1" source="Oc3Pf9WNAxj913DMyhu0-16">
          <mxGeometry width="50" height="50" relative="1" as="geometry">
            <mxPoint x="400" y="420" as="sourcePoint" />
            <mxPoint x="320" y="454" as="targetPoint" />
          </mxGeometry>
        </mxCell>
        <mxCell id="Oc3Pf9WNAxj913DMyhu0-20" value="" style="endArrow=classic;html=1;rounded=0;exitX=0.5;exitY=1;exitDx=0;exitDy=0;" edge="1" parent="1" source="Oc3Pf9WNAxj913DMyhu0-16">
          <mxGeometry width="50" height="50" relative="1" as="geometry">
            <mxPoint x="400" y="420" as="sourcePoint" />
            <mxPoint x="455" y="560" as="targetPoint" />
          </mxGeometry>
        </mxCell>
        <mxCell id="Oc3Pf9WNAxj913DMyhu0-21" value="&lt;b&gt;Menyelesaikan misi&lt;/b&gt;" style="rounded=1;whiteSpace=wrap;html=1;fillColor=#f8cecc;gradientColor=#ea6b66;strokeColor=#b85450;" vertex="1" parent="1">
          <mxGeometry x="390" y="570" width="130" height="80" as="geometry" />
        </mxCell>
        <mxCell id="Oc3Pf9WNAxj913DMyhu0-25" value="" style="endArrow=classic;html=1;rounded=0;exitX=0.5;exitY=1;exitDx=0;exitDy=0;" edge="1" parent="1" source="Oc3Pf9WNAxj913DMyhu0-21">
          <mxGeometry width="50" height="50" relative="1" as="geometry">
            <mxPoint x="400" y="910" as="sourcePoint" />
            <mxPoint x="455" y="700" as="targetPoint" />
          </mxGeometry>
        </mxCell>
        <mxCell id="Oc3Pf9WNAxj913DMyhu0-33" value="" style="shape=card;whiteSpace=wrap;html=1;fillColor=#f8cecc;gradientColor=#ea6b66;strokeColor=#b85450;direction=south;" vertex="1" parent="1">
          <mxGeometry x="180" y="570" width="140" height="170" as="geometry" />
        </mxCell>
        <mxCell id="Oc3Pf9WNAxj913DMyhu0-36" value="&lt;b&gt;Menyelesaikan misi&lt;/b&gt;" style="rounded=1;whiteSpace=wrap;html=1;fillColor=#f8cecc;gradientColor=#ea6b66;strokeColor=#b85450;" vertex="1" parent="1">
          <mxGeometry x="390" y="710" width="130" height="80" as="geometry" />
        </mxCell>
        <mxCell id="Oc3Pf9WNAxj913DMyhu0-37" value="&lt;b&gt;Menyelesaikan misi&lt;/b&gt;" style="rounded=1;whiteSpace=wrap;html=1;fillColor=#f8cecc;gradientColor=#ea6b66;strokeColor=#b85450;" vertex="1" parent="1">
          <mxGeometry x="390" y="850" width="130" height="80" as="geometry" />
        </mxCell>
        <mxCell id="Oc3Pf9WNAxj913DMyhu0-40" value="" style="endArrow=classic;html=1;rounded=0;exitX=0.5;exitY=1;exitDx=0;exitDy=0;" edge="1" parent="1" source="Oc3Pf9WNAxj913DMyhu0-36">
          <mxGeometry width="50" height="50" relative="1" as="geometry">
            <mxPoint x="400" y="990" as="sourcePoint" />
            <mxPoint x="455" y="840" as="targetPoint" />
          </mxGeometry>
        </mxCell>
        <mxCell id="Oc3Pf9WNAxj913DMyhu0-41" value="" style="shape=card;whiteSpace=wrap;html=1;fillColor=#f8cecc;gradientColor=#ea6b66;strokeColor=#b85450;direction=south;" vertex="1" parent="1">
          <mxGeometry x="180" y="830" width="170" height="110" as="geometry" />
        </mxCell>
        <mxCell id="Oc3Pf9WNAxj913DMyhu0-43" value="" style="endArrow=none;html=1;rounded=0;exitX=0.712;exitY=-0.014;exitDx=0;exitDy=0;exitPerimeter=0;entryX=0;entryY=0.5;entryDx=0;entryDy=0;" edge="1" parent="1" source="Oc3Pf9WNAxj913DMyhu0-33" target="Oc3Pf9WNAxj913DMyhu0-36">
          <mxGeometry width="50" height="50" relative="1" as="geometry">
            <mxPoint x="400" y="820" as="sourcePoint" />
            <mxPoint x="370" y="760" as="targetPoint" />
            <Array as="points">
              <mxPoint x="360" y="690" />
              <mxPoint x="360" y="750" />
            </Array>
          </mxGeometry>
        </mxCell>
        <mxCell id="Oc3Pf9WNAxj913DMyhu0-45" value="" style="line;strokeWidth=2;html=1;" vertex="1" parent="1">
          <mxGeometry x="350" y="885" width="40" height="10" as="geometry" />
        </mxCell>
        <mxCell id="Oc3Pf9WNAxj913DMyhu0-46" value="&lt;b&gt;Menyelesaikan misi&lt;/b&gt;" style="rounded=1;whiteSpace=wrap;html=1;fillColor=#e6d0de;gradientColor=#d5739d;strokeColor=#996185;" vertex="1" parent="1">
          <mxGeometry x="310" y="1040" width="210" height="100" as="geometry" />
        </mxCell>
        <mxCell id="Oc3Pf9WNAxj913DMyhu0-47" value="" style="endArrow=classic;html=1;rounded=0;exitX=0.5;exitY=1;exitDx=0;exitDy=0;" edge="1" parent="1" source="Oc3Pf9WNAxj913DMyhu0-37">
          <mxGeometry width="50" height="50" relative="1" as="geometry">
            <mxPoint x="400" y="1160" as="sourcePoint" />
            <mxPoint x="420" y="1030" as="targetPoint" />
            <Array as="points">
              <mxPoint x="455" y="1000" />
              <mxPoint x="420" y="1000" />
            </Array>
          </mxGeometry>
        </mxCell>
        <mxCell id="Oc3Pf9WNAxj913DMyhu0-48" value="&lt;b&gt;Menyelesaikan misi&lt;/b&gt;" style="rounded=1;whiteSpace=wrap;html=1;fillColor=#e6d0de;gradientColor=#d5739d;strokeColor=#996185;" vertex="1" parent="1">
          <mxGeometry x="520" y="1200" width="160" height="80" as="geometry" />
        </mxCell>
        <mxCell id="Oc3Pf9WNAxj913DMyhu0-66" value="" style="edgeStyle=orthogonalEdgeStyle;rounded=0;orthogonalLoop=1;jettySize=auto;html=1;" edge="1" parent="1" source="Oc3Pf9WNAxj913DMyhu0-49" target="Oc3Pf9WNAxj913DMyhu0-51">
          <mxGeometry relative="1" as="geometry" />
        </mxCell>
        <mxCell id="Oc3Pf9WNAxj913DMyhu0-49" value="&lt;b&gt;Menyelesaikan misi&lt;/b&gt;" style="rounded=1;whiteSpace=wrap;html=1;fillColor=#e6d0de;gradientColor=#d5739d;strokeColor=#996185;" vertex="1" parent="1">
          <mxGeometry x="350" y="1320" width="160" height="80" as="geometry" />
        </mxCell>
        <mxCell id="Oc3Pf9WNAxj913DMyhu0-50" value="" style="rhombus;whiteSpace=wrap;html=1;fillColor=#e6d0de;gradientColor=#d5739d;strokeColor=#996185;" vertex="1" parent="1">
          <mxGeometry x="155" y="1180" width="165" height="130" as="geometry" />
        </mxCell>
        <mxCell id="Oc3Pf9WNAxj913DMyhu0-51" value="" style="rhombus;whiteSpace=wrap;html=1;fillColor=#e6d0de;gradientColor=#d5739d;strokeColor=#996185;" vertex="1" parent="1">
          <mxGeometry x="360" y="1460" width="160" height="120" as="geometry" />
        </mxCell>
        <mxCell id="Oc3Pf9WNAxj913DMyhu0-52" value="&lt;b&gt;Menyelesaikan misi&lt;/b&gt;" style="rounded=1;whiteSpace=wrap;html=1;fillColor=#e6d0de;gradientColor=#d5739d;strokeColor=#996185;" vertex="1" parent="1">
          <mxGeometry x="480" y="1600" width="135" height="70" as="geometry" />
        </mxCell>
        <mxCell id="Oc3Pf9WNAxj913DMyhu0-53" value="&lt;b&gt;Menyelesaikan misi&lt;/b&gt;" style="rounded=1;whiteSpace=wrap;html=1;fillColor=#e6d0de;gradientColor=#d5739d;strokeColor=#996185;" vertex="1" parent="1">
          <mxGeometry x="260" y="1600" width="135" height="70" as="geometry" />
        </mxCell>
        <mxCell id="Oc3Pf9WNAxj913DMyhu0-54" value="" style="ellipse;whiteSpace=wrap;html=1;fillColor=#f5f5f5;gradientColor=#b3b3b3;strokeColor=#666666;" vertex="1" parent="1">
          <mxGeometry x="375" y="1730" width="120" height="80" as="geometry" />
        </mxCell>
        <mxCell id="Oc3Pf9WNAxj913DMyhu0-56" value="" style="shape=flexArrow;endArrow=classic;html=1;rounded=0;fillColor=#f5f5f5;gradientColor=#b3b3b3;strokeColor=#666666;" edge="1" parent="1">
          <mxGeometry width="50" height="50" relative="1" as="geometry">
            <mxPoint x="550" y="1670" as="sourcePoint" />
            <mxPoint x="500" y="1780" as="targetPoint" />
            <Array as="points">
              <mxPoint x="550" y="1780" />
            </Array>
          </mxGeometry>
        </mxCell>
        <mxCell id="Oc3Pf9WNAxj913DMyhu0-57" value="" style="shape=flexArrow;endArrow=classic;html=1;rounded=0;fillColor=#f5f5f5;gradientColor=#b3b3b3;strokeColor=#666666;" edge="1" parent="1">
          <mxGeometry width="50" height="50" relative="1" as="geometry">
            <mxPoint x="320" y="1670" as="sourcePoint" />
            <mxPoint x="370" y="1780" as="targetPoint" />
            <Array as="points">
              <mxPoint x="320" y="1780" />
            </Array>
          </mxGeometry>
        </mxCell>
        <mxCell id="Oc3Pf9WNAxj913DMyhu0-62" value="" style="endArrow=classic;html=1;rounded=0;exitX=0.071;exitY=0.591;exitDx=0;exitDy=0;exitPerimeter=0;" edge="1" parent="1" source="Oc3Pf9WNAxj913DMyhu0-51">
          <mxGeometry width="50" height="50" relative="1" as="geometry">
            <mxPoint x="400" y="1610" as="sourcePoint" />
            <mxPoint x="340" y="1590" as="targetPoint" />
            <Array as="points">
              <mxPoint x="371" y="1570" />
              <mxPoint x="340" y="1570" />
            </Array>
          </mxGeometry>
        </mxCell>
        <mxCell id="Oc3Pf9WNAxj913DMyhu0-64" value="" style="endArrow=classic;html=1;rounded=0;exitX=0.969;exitY=0.573;exitDx=0;exitDy=0;exitPerimeter=0;" edge="1" parent="1" source="Oc3Pf9WNAxj913DMyhu0-51">
          <mxGeometry width="50" height="50" relative="1" as="geometry">
            <mxPoint x="530" y="1540" as="sourcePoint" />
            <mxPoint x="550" y="1596" as="targetPoint" />
            <Array as="points">
              <mxPoint x="515" y="1570" />
              <mxPoint x="550" y="1570" />
            </Array>
          </mxGeometry>
        </mxCell>
        <mxCell id="Oc3Pf9WNAxj913DMyhu0-67" value="" style="endArrow=classic;html=1;rounded=0;" edge="1" parent="1">
          <mxGeometry width="50" height="50" relative="1" as="geometry">
            <mxPoint x="520" y="1080" as="sourcePoint" />
            <mxPoint x="600" y="1180" as="targetPoint" />
            <Array as="points">
              <mxPoint x="600" y="1080" />
            </Array>
          </mxGeometry>
        </mxCell>
        <mxCell id="Oc3Pf9WNAxj913DMyhu0-68" value="" style="endArrow=classic;html=1;rounded=0;exitX=0.5;exitY=1;exitDx=0;exitDy=0;" edge="1" parent="1" source="Oc3Pf9WNAxj913DMyhu0-48">
          <mxGeometry width="50" height="50" relative="1" as="geometry">
            <mxPoint x="400" y="1280" as="sourcePoint" />
            <mxPoint x="520" y="1360" as="targetPoint" />
            <Array as="points">
              <mxPoint x="600" y="1360" />
            </Array>
          </mxGeometry>
        </mxCell>
        <mxCell id="Oc3Pf9WNAxj913DMyhu0-70" value="" style="endArrow=classic;startArrow=classic;html=1;rounded=0;" edge="1" parent="1">
          <mxGeometry width="50" height="50" relative="1" as="geometry">
            <mxPoint x="240" y="1170" as="sourcePoint" />
            <mxPoint x="300" y="1080" as="targetPoint" />
            <Array as="points">
              <mxPoint x="240" y="1080" />
            </Array>
          </mxGeometry>
        </mxCell>
        <mxCell id="Oc3Pf9WNAxj913DMyhu0-72" value="" style="endArrow=classic;startArrow=classic;html=1;rounded=0;" edge="1" parent="1">
          <mxGeometry width="50" height="50" relative="1" as="geometry">
            <mxPoint x="240" y="1320" as="sourcePoint" />
            <mxPoint x="340" y="1360" as="targetPoint" />
            <Array as="points">
              <mxPoint x="240" y="1360" />
            </Array>
          </mxGeometry>
        </mxCell>
      </root>
    </mxGraphModel>
  </diagram>
</mxfile>
